<svg width="447" height="177" viewBox="0 0 447 177" fill="none" xmlns="http://www.w3.org/2000/svg">
    <path d="M3.84 82V5.2H26.976L33.312 34.288L34.56 69.328H37.056L38.208 34.288L44.64 5.2H67.68V82H53.28V58.384L56.064 17.872H53.472L49.44 59.344L43.488 82H28.032L22.176 59.344L18.048 17.872H15.552L18.24 58.384V82H3.84ZM95.3393 82.96C88.2993 82.96 83.1953 81.472 80.0273 78.496C76.8913 75.52 75.2433 70.576 75.0833 63.664C75.0193 60.528 74.9713 57.264 74.9393 53.872C74.9073 50.48 74.8913 47.04 74.8913 43.552C74.8913 40.064 74.9073 36.624 74.9393 33.232C74.9713 29.84 75.0193 26.576 75.0833 23.44C75.2433 16.56 76.8913 11.648 80.0273 8.704C83.1953 5.72799 88.2993 4.23999 95.3393 4.23999C102.411 4.23999 107.483 5.72799 110.555 8.704C113.627 11.648 115.275 16.56 115.499 23.44C115.627 26.64 115.723 29.936 115.787 33.328C115.851 36.72 115.883 40.16 115.883 43.648C115.883 47.104 115.851 50.528 115.787 53.92C115.723 57.28 115.627 60.528 115.499 63.664C115.275 70.576 113.627 75.52 110.555 78.496C107.483 81.472 102.411 82.96 95.3393 82.96ZM95.3393 71.248C97.2273 71.248 98.6513 70.832 99.6113 70C100.571 69.136 101.067 67.92 101.099 66.352C101.259 63.088 101.371 59.504 101.435 55.6C101.499 51.696 101.531 47.68 101.531 43.552C101.531 39.424 101.499 35.408 101.435 31.504C101.371 27.6 101.259 24.016 101.099 20.752C101.067 19.216 100.555 18.032 99.5633 17.2C98.5713 16.368 97.1633 15.952 95.3393 15.952C93.5153 15.952 92.0913 16.368 91.0673 17.2C90.0753 18.032 89.5473 19.216 89.4833 20.752C89.3553 24.016 89.2433 27.6 89.1473 31.504C89.0833 35.408 89.0513 39.424 89.0513 43.552C89.0513 47.68 89.0833 51.696 89.1473 55.6C89.2433 59.504 89.3553 63.088 89.4833 66.352C89.5473 67.92 90.0753 69.136 91.0673 70C92.0913 70.832 93.5153 71.248 95.3393 71.248ZM122.996 82V5.2H142.484C149.684 5.2 154.884 6.736 158.084 9.808C161.316 12.848 162.996 17.872 163.124 24.88C163.22 29.328 163.284 33.552 163.316 37.552C163.348 41.552 163.348 45.552 163.316 49.552C163.284 53.552 163.22 57.776 163.124 62.224C162.996 69.264 161.316 74.32 158.084 77.392C154.884 80.464 149.684 82 142.484 82H122.996ZM137.396 69.328H142.484C144.5 69.328 146.036 68.864 147.092 67.936C148.148 67.008 148.692 65.68 148.724 63.952C148.82 60.528 148.884 57.12 148.916 53.728C148.98 50.336 149.012 46.944 149.012 43.552C149.012 40.16 148.98 36.768 148.916 33.376C148.884 29.952 148.82 26.544 148.724 23.152C148.692 21.456 148.148 20.16 147.092 19.264C146.036 18.336 144.5 17.872 142.484 17.872H137.396V69.328ZM170.528 82V5.2H203.744V17.872H184.928V36.592H202.784V49.264H184.928V69.328H203.744V82H170.528ZM209.715 82V5.2H228.243C235.411 5.2 240.579 6.656 243.747 9.568C246.947 12.448 248.659 17.232 248.883 23.92C248.947 25.712 248.979 27.28 248.979 28.624C249.011 29.968 249.011 31.312 248.979 32.656C248.979 34 248.947 35.568 248.883 37.36C248.755 41.52 248.051 44.928 246.771 47.584C245.523 50.24 243.571 52.272 240.915 53.68L249.939 82H234.675L227.379 56.08H224.115V82H209.715ZM224.115 43.408H228.243C230.259 43.408 231.779 42.944 232.803 42.016C233.827 41.088 234.387 39.792 234.483 38.128C234.579 36.56 234.643 34.928 234.675 33.232C234.707 31.504 234.707 29.792 234.675 28.096C234.643 26.368 234.579 24.72 234.483 23.152C234.387 21.456 233.827 20.16 232.803 19.264C231.779 18.336 230.259 17.872 228.243 17.872H224.115V43.408ZM255.465 82V5.2H276.297L282.057 29.68L287.337 69.328H289.833L287.145 38.128L285.993 5.2H299.913V82H278.025L272.265 56.848L268.329 17.776H265.641L268.137 52.528L269.385 82H255.465ZM0.96 170L11.616 93.2H34.272L44.928 170H30.144L28.512 153.968H17.376L15.744 170H0.96ZM18.72 141.296H27.168L25.44 124.304L24.288 105.872H21.6L20.448 124.304L18.72 141.296ZM49.6838 170V93.2H68.2118C75.3798 93.2 80.5478 94.656 83.7158 97.568C86.9158 100.448 88.6278 105.232 88.8518 111.92C88.9158 113.712 88.9478 115.28 88.9478 116.624C88.9798 117.968 88.9798 119.312 88.9478 120.656C88.9478 122 88.9158 123.568 88.8518 125.36C88.7238 129.52 88.0198 132.928 86.7398 135.584C85.4918 138.24 83.5398 140.272 80.8838 141.68L89.9078 170H74.6438L67.3478 144.08H64.0838V170H49.6838ZM64.0838 131.408H68.2118C70.2278 131.408 71.7478 130.944 72.7718 130.016C73.7958 129.088 74.3558 127.792 74.4518 126.128C74.5478 124.56 74.6118 122.928 74.6438 121.232C74.6758 119.504 74.6758 117.792 74.6438 116.096C74.6118 114.368 74.5478 112.72 74.4518 111.152C74.3558 109.456 73.7958 108.16 72.7718 107.264C71.7478 106.336 70.2278 105.872 68.2118 105.872H64.0838V131.408ZM104.506 170V105.872H92.1698V93.2H131.242V105.872H118.906V170H104.506ZM175.873 170.96C171.041 170.96 167.169 170.32 164.257 169.04C161.345 167.728 159.217 165.664 157.873 162.848C156.529 160 155.777 156.272 155.617 151.664C155.521 148.976 155.441 145.92 155.377 142.496C155.345 139.04 155.329 135.488 155.329 131.84C155.329 128.192 155.345 124.672 155.377 121.28C155.441 117.888 155.521 114.896 155.617 112.304C155.809 107.44 156.593 103.536 157.969 100.592C159.377 97.648 161.521 95.52 164.401 94.208C167.313 92.896 171.137 92.24 175.873 92.24C182.593 92.24 187.489 93.728 190.561 96.704C193.665 99.648 195.425 104.56 195.841 111.44C195.937 112.912 195.985 114.672 195.985 116.72C195.985 118.736 195.937 120.496 195.841 122H181.441C181.537 120.208 181.585 118 181.585 115.376C181.585 112.72 181.537 110.512 181.441 108.752C181.345 107.216 180.817 106.032 179.857 105.2C178.897 104.368 177.569 103.952 175.873 103.952C174.017 103.952 172.593 104.368 171.601 105.2C170.641 106.032 170.113 107.216 170.017 108.752C169.825 112.112 169.681 115.744 169.585 119.648C169.489 123.52 169.441 127.488 169.441 131.552C169.441 135.616 169.489 139.6 169.585 143.504C169.681 147.376 169.825 150.992 170.017 154.352C170.113 155.92 170.641 157.136 171.601 158C172.593 158.832 174.017 159.248 175.873 159.248C177.697 159.248 179.153 158.832 180.241 158C181.361 157.136 181.985 155.92 182.113 154.352C182.177 153.616 182.209 152.656 182.209 151.472C182.241 150.256 182.241 149.056 182.209 147.872C182.209 146.656 182.177 145.68 182.113 144.944H176.833V132.464H196.129C196.289 135.376 196.353 138.576 196.321 142.064C196.289 145.52 196.193 148.72 196.033 151.664C195.713 158.576 193.985 163.52 190.849 166.496C187.745 169.472 182.753 170.96 175.873 170.96ZM199.804 170L210.46 93.2H233.116L243.772 170H228.988L227.356 153.968H216.22L214.588 170H199.804ZM217.564 141.296H226.012L224.284 124.304L223.132 105.872H220.444L219.292 124.304L217.564 141.296ZM248.528 170V93.2H262.928V157.328H281.84V170H248.528ZM287.153 170V93.2H301.553V157.328H320.465V170H287.153ZM325.778 170V93.2H358.994V105.872H340.178V124.592H358.034V137.264H340.178V157.328H358.994V170H325.778ZM364.965 170V93.2H383.493C390.661 93.2 395.829 94.656 398.997 97.568C402.197 100.448 403.909 105.232 404.133 111.92C404.197 113.712 404.229 115.28 404.229 116.624C404.261 117.968 404.261 119.312 404.229 120.656C404.229 122 404.197 123.568 404.133 125.36C404.005 129.52 403.301 132.928 402.021 135.584C400.773 138.24 398.821 140.272 396.165 141.68L405.189 170H389.925L382.629 144.08H379.365V170H364.965ZM379.365 131.408H383.493C385.509 131.408 387.029 130.944 388.053 130.016C389.077 129.088 389.637 127.792 389.733 126.128C389.829 124.56 389.893 122.928 389.925 121.232C389.957 119.504 389.957 117.792 389.925 116.096C389.893 114.368 389.829 112.72 389.733 111.152C389.637 109.456 389.077 108.16 388.053 107.264C387.029 106.336 385.509 105.872 383.493 105.872H379.365V131.408ZM418.151 170V151.76V151.664L403.751 93.2H418.439L422.567 111.824L424.007 134.384H426.695L428.135 111.824L432.263 93.2H446.951L432.551 151.664V151.76V170H418.151Z" fill="#151515"/>
    <g clip-path="url(#clip0_0_1)">
        <mask id="mask0_0_1" style="mask-type:luminance" maskUnits="userSpaceOnUse" x="-165" y="-189" width="450" height="799">
            <rect x="-165" y="-189" width="450" height="799" fill="white"/>
        </mask>
        <g mask="url(#mask0_0_1)">
            <path d="M3.84 81V4.2H26.976L33.312 33.288L34.56 68.328H37.056L38.208 33.288L44.64 4.2H67.68V81H53.28V57.384L56.064 16.872H53.472L49.44 58.344L43.488 81H28.032L22.176 58.344L18.048 16.872H15.552L18.24 57.384V81H3.84ZM95.3393 81.96C88.2993 81.96 83.1953 80.472 80.0273 77.496C76.8913 74.52 75.2433 69.576 75.0833 62.664C75.0193 59.528 74.9713 56.264 74.9393 52.872C74.9073 49.48 74.8913 46.04 74.8913 42.552C74.8913 39.064 74.9073 35.624 74.9393 32.232C74.9713 28.84 75.0193 25.576 75.0833 22.44C75.2433 15.56 76.8913 10.648 80.0273 7.704C83.1953 4.72799 88.2993 3.23999 95.3393 3.23999C102.411 3.23999 107.483 4.72799 110.555 7.704C113.627 10.648 115.275 15.56 115.499 22.44C115.627 25.64 115.723 28.936 115.787 32.328C115.851 35.72 115.883 39.16 115.883 42.648C115.883 46.104 115.851 49.528 115.787 52.92C115.723 56.28 115.627 59.528 115.499 62.664C115.275 69.576 113.627 74.52 110.555 77.496C107.483 80.472 102.411 81.96 95.3393 81.96ZM95.3393 70.248C97.2273 70.248 98.6513 69.832 99.6113 69C100.571 68.136 101.067 66.92 101.099 65.352C101.259 62.088 101.371 58.504 101.435 54.6C101.499 50.696 101.531 46.68 101.531 42.552C101.531 38.424 101.499 34.408 101.435 30.504C101.371 26.6 101.259 23.016 101.099 19.752C101.067 18.216 100.555 17.032 99.5633 16.2C98.5713 15.368 97.1633 14.952 95.3393 14.952C93.5153 14.952 92.0913 15.368 91.0673 16.2C90.0753 17.032 89.5473 18.216 89.4833 19.752C89.3553 23.016 89.2433 26.6 89.1473 30.504C89.0833 34.408 89.0513 38.424 89.0513 42.552C89.0513 46.68 89.0833 50.696 89.1473 54.6C89.2433 58.504 89.3553 62.088 89.4833 65.352C89.5473 66.92 90.0753 68.136 91.0673 69C92.0913 69.832 93.5153 70.248 95.3393 70.248ZM122.996 81V4.2H142.484C149.684 4.2 154.884 5.736 158.084 8.808C161.316 11.848 162.996 16.872 163.124 23.88C163.22 28.328 163.284 32.552 163.316 36.552C163.348 40.552 163.348 44.552 163.316 48.552C163.284 52.552 163.22 56.776 163.124 61.224C162.996 68.264 161.316 73.32 158.084 76.392C154.884 79.464 149.684 81 142.484 81H122.996ZM137.396 68.328H142.484C144.5 68.328 146.036 67.864 147.092 66.936C148.148 66.008 148.692 64.68 148.724 62.952C148.82 59.528 148.884 56.12 148.916 52.728C148.98 49.336 149.012 45.944 149.012 42.552C149.012 39.16 148.98 35.768 148.916 32.376C148.884 28.952 148.82 25.544 148.724 22.152C148.692 20.456 148.148 19.16 147.092 18.264C146.036 17.336 144.5 16.872 142.484 16.872H137.396V68.328ZM170.528 81V4.2H203.744V16.872H184.928V35.592H202.784V48.264H184.928V68.328H203.744V81H170.528ZM209.715 81V4.2H228.243C235.411 4.2 240.579 5.656 243.747 8.568C246.947 11.448 248.659 16.232 248.883 22.92C248.947 24.712 248.979 26.28 248.979 27.624C249.011 28.968 249.011 30.312 248.979 31.656C248.979 33 248.947 34.568 248.883 36.36C248.755 40.52 248.051 43.928 246.771 46.584C245.523 49.24 243.571 51.272 240.915 52.68L249.939 81H234.675L227.379 55.08H224.115V81H209.715ZM224.115 42.408H228.243C230.259 42.408 231.779 41.944 232.803 41.016C233.827 40.088 234.387 38.792 234.483 37.128C234.579 35.56 234.643 33.928 234.675 32.232C234.707 30.504 234.707 28.792 234.675 27.096C234.643 25.368 234.579 23.72 234.483 22.152C234.387 20.456 233.827 19.16 232.803 18.264C231.779 17.336 230.259 16.872 228.243 16.872H224.115V42.408ZM255.465 81V4.2H276.297L282.057 28.68L287.337 68.328H289.833L287.145 37.128L285.993 4.2H299.913V81H278.025L272.265 55.848L268.329 16.776H265.641L268.137 51.528L269.385 81H255.465ZM0.96 169L11.616 92.2H34.272L44.928 169H30.144L28.512 152.968H17.376L15.744 169H0.96ZM18.72 140.296H27.168L25.44 123.304L24.288 104.872H21.6L20.448 123.304L18.72 140.296ZM49.6838 169V92.2H68.2118C75.3798 92.2 80.5478 93.656 83.7158 96.568C86.9158 99.448 88.6278 104.232 88.8518 110.92C88.9158 112.712 88.9478 114.28 88.9478 115.624C88.9798 116.968 88.9798 118.312 88.9478 119.656C88.9478 121 88.9158 122.568 88.8518 124.36C88.7238 128.52 88.0198 131.928 86.7398 134.584C85.4918 137.24 83.5398 139.272 80.8838 140.68L89.9078 169H74.6438L67.3478 143.08H64.0838V169H49.6838ZM64.0838 130.408H68.2118C70.2278 130.408 71.7478 129.944 72.7718 129.016C73.7958 128.088 74.3558 126.792 74.4518 125.128C74.5478 123.56 74.6118 121.928 74.6438 120.232C74.6758 118.504 74.6758 116.792 74.6438 115.096C74.6118 113.368 74.5478 111.72 74.4518 110.152C74.3558 108.456 73.7958 107.16 72.7718 106.264C71.7478 105.336 70.2278 104.872 68.2118 104.872H64.0838V130.408ZM104.506 169V104.872H92.1698V92.2H131.242V104.872H118.906V169H104.506ZM175.873 169.96C171.041 169.96 167.169 169.32 164.257 168.04C161.345 166.728 159.217 164.664 157.873 161.848C156.529 159 155.777 155.272 155.617 150.664C155.521 147.976 155.441 144.92 155.377 141.496C155.345 138.04 155.329 134.488 155.329 130.84C155.329 127.192 155.345 123.672 155.377 120.28C155.441 116.888 155.521 113.896 155.617 111.304C155.809 106.44 156.593 102.536 157.969 99.592C159.377 96.648 161.521 94.52 164.401 93.208C167.313 91.896 171.137 91.24 175.873 91.24C182.593 91.24 187.489 92.728 190.561 95.704C193.665 98.648 195.425 103.56 195.841 110.44C195.937 111.912 195.985 113.672 195.985 115.72C195.985 117.736 195.937 119.496 195.841 121H181.441C181.537 119.208 181.585 117 181.585 114.376C181.585 111.72 181.537 109.512 181.441 107.752C181.345 106.216 180.817 105.032 179.857 104.2C178.897 103.368 177.569 102.952 175.873 102.952C174.017 102.952 172.593 103.368 171.601 104.2C170.641 105.032 170.113 106.216 170.017 107.752C169.825 111.112 169.681 114.744 169.585 118.648C169.489 122.52 169.441 126.488 169.441 130.552C169.441 134.616 169.489 138.6 169.585 142.504C169.681 146.376 169.825 149.992 170.017 153.352C170.113 154.92 170.641 156.136 171.601 157C172.593 157.832 174.017 158.248 175.873 158.248C177.697 158.248 179.153 157.832 180.241 157C181.361 156.136 181.985 154.92 182.113 153.352C182.177 152.616 182.209 151.656 182.209 150.472C182.241 149.256 182.241 148.056 182.209 146.872C182.209 145.656 182.177 144.68 182.113 143.944H176.833V131.464H196.129C196.289 134.376 196.353 137.576 196.321 141.064C196.289 144.52 196.193 147.72 196.033 150.664C195.713 157.576 193.985 162.52 190.849 165.496C187.745 168.472 182.753 169.96 175.873 169.96ZM199.804 169L210.46 92.2H233.116L243.772 169H228.988L227.356 152.968H216.22L214.588 169H199.804ZM217.564 140.296H226.012L224.284 123.304L223.132 104.872H220.444L219.292 123.304L217.564 140.296ZM248.528 169V92.2H262.928V156.328H281.84V169H248.528ZM287.153 169V92.2H301.553V156.328H320.465V169H287.153ZM325.778 169V92.2H358.994V104.872H340.178V123.592H358.034V136.264H340.178V156.328H358.994V169H325.778ZM364.965 169V92.2H383.493C390.661 92.2 395.829 93.656 398.997 96.568C402.197 99.448 403.909 104.232 404.133 110.92C404.197 112.712 404.229 114.28 404.229 115.624C404.261 116.968 404.261 118.312 404.229 119.656C404.229 121 404.197 122.568 404.133 124.36C404.005 128.52 403.301 131.928 402.021 134.584C400.773 137.24 398.821 139.272 396.165 140.68L405.189 169H389.925L382.629 143.08H379.365V169H364.965ZM379.365 130.408H383.493C385.509 130.408 387.029 129.944 388.053 129.016C389.077 128.088 389.637 126.792 389.733 125.128C389.829 123.56 389.893 121.928 389.925 120.232C389.957 118.504 389.957 116.792 389.925 115.096C389.893 113.368 389.829 111.72 389.733 110.152C389.637 108.456 389.077 107.16 388.053 106.264C387.029 105.336 385.509 104.872 383.493 104.872H379.365V130.408ZM418.151 169V150.76V150.664L403.751 92.2H418.439L422.567 110.824L424.007 133.384H426.695L428.135 110.824L432.263 92.2H446.951L432.551 150.664V150.76V169H418.151Z" fill="white"/>
        </g>
    </g>
    <defs>
        <clipPath id="clip0_0_1">
            <rect width="285" height="177" fill="white"/>
        </clipPath>
    </defs>
</svg>
